<svg xmlns="http://www.w3.org/2000/svg" version="1.1" xmlns:xlink="http://www.w3.org/1999/xlink" xmlns:svgjs="http://svgjs.com/svgjs" width="2550" height="3300"><rect width="2550" height="3300" fill="#4bb39a"></rect><rect width="58" height="3300" fill="#ef7c8e" x="158" y="0"></rect><rect width="58" height="3300" fill="#fae8e0" x="216" y="0"></rect><rect width="58" height="3300" fill="#b6e2d3" x="274" y="0"></rect><rect width="58" height="3300" fill="#d8a7b1" x="332" y="0"></rect><rect width="58" height="3300" fill="#887bb0" x="390" y="0"></rect><circle r="65" cx="85" cy="595" fill="#ffffff"></circle><circle r="65" cx="65" cy="625" fill="#ffffff"></circle><circle r="65" cx="215" cy="605" fill="#ffffff"></circle><circle r="50" cx="150" cy="580" fill="#ffffff"></circle><circle r="50" cx="150" cy="650" fill="#ffffff"></circle><circle r="40" cx="100" cy="670" fill="#ffffff"></circle><circle r="60" cx="350" cy="650" fill="#ffffff"></circle><circle r="50" cx="460" cy="660" fill="#ffffff"></circle><circle r="50" cx="510" cy="650" fill="#ffffff"></circle><circle r="50" cx="400" cy="653" fill="#ffffff"></circle><circle r="40" cx="420" cy="635" fill="#ffffff"></circle><circle r="75" cx="330" cy="375" fill="#ffffff"></circle><circle r="75" cx="305" cy="435" fill="#ffffff"></circle><circle r="70" cx="430" cy="400" fill="#ffffff"></circle><circle r="50" cx="470" cy="440" fill="#ffffff"></circle><circle r="50" cx="395" cy="465" fill="#ffffff"></circle><circle r="50" cx="160" cy="440" fill="#ffffff"></circle><circle r="75" cx="235" cy="405" fill="#ffffff"></circle><circle r="55" cx="165" cy="370" fill="#ffffff"></circle><circle r="50" cx="135" cy="410" fill="#ffffff"></circle><rect width="5" height="3300" fill="#ffffff" fill-opacity="0.03" x="0" y="0"></rect><rect width="5" height="3300" fill="#000000" fill-opacity="0.03" x="5" y="0"></rect><rect width="5" height="3300" fill="#ffffff" fill-opacity="0.03" x="10" y="0"></rect><rect width="5" height="3300" fill="#000000" fill-opacity="0.03" x="15" y="0"></rect><rect width="5" height="3300" fill="#ffffff" fill-opacity="0.03" x="20" y="0"></rect><rect width="5" height="3300" fill="#000000" fill-opacity="0.03" x="25" y="0"></rect><rect width="5" height="3300" fill="#ffffff" fill-opacity="0.03" x="30" y="0"></rect><rect width="5" height="3300" fill="#000000" fill-opacity="0.03" x="35" y="0"></rect><rect width="5" height="3300" fill="#ffffff" fill-opacity="0.03" x="40" y="0"></rect><rect width="5" height="3300" fill="#000000" fill-opacity="0.03" x="45" y="0"></rect><rect width="5" height="3300" fill="#ffffff" fill-opacity="0.03" x="50" y="0"></rect><rect width="5" height="3300" fill="#000000" fill-opacity="0.03" x="55" y="0"></rect><rect width="5" height="3300" fill="#ffffff" fill-opacity="0.03" x="60" y="0"></rect><rect width="5" height="3300" fill="#000000" fill-opacity="0.03" x="65" y="0"></rect><rect width="5" height="3300" fill="#ffffff" fill-opacity="0.03" x="70" y="0"></rect><rect width="5" height="3300" fill="#000000" fill-opacity="0.03" x="75" y="0"></rect><rect width="5" height="3300" fill="#ffffff" fill-opacity="0.03" x="80" y="0"></rect><rect width="5" height="3300" fill="#000000" fill-opacity="0.03" x="85" y="0"></rect><rect width="5" height="3300" fill="#ffffff" fill-opacity="0.03" x="90" y="0"></rect><rect width="5" height="3300" fill="#000000" fill-opacity="0.03" x="95" y="0"></rect><rect width="5" height="3300" fill="#ffffff" fill-opacity="0.03" x="100" y="0"></rect><rect width="5" height="3300" fill="#000000" fill-opacity="0.03" x="105" y="0"></rect><rect width="5" height="3300" fill="#ffffff" fill-opacity="0.03" x="110" y="0"></rect><rect width="5" height="3300" fill="#000000" fill-opacity="0.03" x="115" y="0"></rect><rect width="5" height="3300" fill="#ffffff" fill-opacity="0.03" x="120" y="0"></rect><rect width="5" height="3300" fill="#000000" fill-opacity="0.03" x="125" y="0"></rect><rect width="5" height="3300" fill="#ffffff" fill-opacity="0.03" x="130" y="0"></rect><rect width="5" height="3300" fill="#000000" fill-opacity="0.03" x="135" y="0"></rect><rect width="5" height="3300" fill="#ffffff" fill-opacity="0.03" x="140" y="0"></rect><rect width="5" height="3300" fill="#000000" fill-opacity="0.03" x="145" y="0"></rect><rect width="5" height="3300" fill="#ffffff" fill-opacity="0.03" x="150" y="0"></rect><rect width="5" height="3300" fill="#000000" fill-opacity="0.03" x="155" y="0"></rect><rect width="5" height="3300" fill="#ffffff" fill-opacity="0.03" x="160" y="0"></rect><rect width="5" height="3300" fill="#000000" fill-opacity="0.03" x="165" y="0"></rect><rect width="5" height="3300" fill="#ffffff" fill-opacity="0.03" x="170" y="0"></rect><rect width="5" height="3300" fill="#000000" fill-opacity="0.03" x="175" y="0"></rect><rect width="5" height="3300" fill="#ffffff" fill-opacity="0.03" x="180" y="0"></rect><rect width="5" height="3300" fill="#000000" fill-opacity="0.03" x="185" y="0"></rect><rect width="5" height="3300" fill="#ffffff" fill-opacity="0.03" x="190" y="0"></rect><rect width="5" height="3300" fill="#000000" fill-opacity="0.03" x="195" y="0"></rect><rect width="5" height="3300" fill="#ffffff" fill-opacity="0.03" x="200" y="0"></rect><rect width="5" height="3300" fill="#000000" fill-opacity="0.03" x="205" y="0"></rect><rect width="5" height="3300" fill="#ffffff" fill-opacity="0.03" x="210" y="0"></rect><rect width="5" height="3300" fill="#000000" fill-opacity="0.03" x="215" y="0"></rect><rect width="5" height="3300" fill="#ffffff" fill-opacity="0.03" x="220" y="0"></rect><rect width="5" height="3300" fill="#000000" fill-opacity="0.03" x="225" y="0"></rect><rect width="5" height="3300" fill="#ffffff" fill-opacity="0.03" x="230" y="0"></rect><rect width="5" height="3300" fill="#000000" fill-opacity="0.03" x="235" y="0"></rect><rect width="5" height="3300" fill="#ffffff" fill-opacity="0.03" x="240" y="0"></rect><rect width="5" height="3300" fill="#000000" fill-opacity="0.03" x="245" y="0"></rect><rect width="5" height="3300" fill="#ffffff" fill-opacity="0.03" x="250" y="0"></rect><rect width="5" height="3300" fill="#000000" fill-opacity="0.03" x="255" y="0"></rect><rect width="5" height="3300" fill="#ffffff" fill-opacity="0.03" x="260" y="0"></rect><rect width="5" height="3300" fill="#000000" fill-opacity="0.03" x="265" y="0"></rect><rect width="5" height="3300" fill="#ffffff" fill-opacity="0.03" x="270" y="0"></rect><rect width="5" height="3300" fill="#000000" fill-opacity="0.03" x="275" y="0"></rect><rect width="5" height="3300" fill="#ffffff" fill-opacity="0.03" x="280" y="0"></rect><rect width="5" height="3300" fill="#000000" fill-opacity="0.03" x="285" y="0"></rect><rect width="5" height="3300" fill="#ffffff" fill-opacity="0.03" x="290" y="0"></rect><rect width="5" height="3300" fill="#000000" fill-opacity="0.03" x="295" y="0"></rect><rect width="5" height="3300" fill="#ffffff" fill-opacity="0.03" x="300" y="0"></rect><rect width="5" height="3300" fill="#000000" fill-opacity="0.03" x="305" y="0"></rect><rect width="5" height="3300" fill="#ffffff" fill-opacity="0.03" x="310" y="0"></rect><rect width="5" height="3300" fill="#000000" fill-opacity="0.03" x="315" y="0"></rect><rect width="5" height="3300" fill="#ffffff" fill-opacity="0.03" x="320" y="0"></rect><rect width="5" height="3300" fill="#000000" fill-opacity="0.03" x="325" y="0"></rect><rect width="5" height="3300" fill="#ffffff" fill-opacity="0.03" x="330" y="0"></rect><rect width="5" height="3300" fill="#000000" fill-opacity="0.03" x="335" y="0"></rect><rect width="5" height="3300" fill="#ffffff" fill-opacity="0.03" x="340" y="0"></rect><rect width="5" height="3300" fill="#000000" fill-opacity="0.03" x="345" y="0"></rect><rect width="5" height="3300" fill="#ffffff" fill-opacity="0.03" x="350" y="0"></rect><rect width="5" height="3300" fill="#000000" fill-opacity="0.03" x="355" y="0"></rect><rect width="5" height="3300" fill="#ffffff" fill-opacity="0.03" x="360" y="0"></rect><rect width="5" height="3300" fill="#000000" fill-opacity="0.03" x="365" y="0"></rect><rect width="5" height="3300" fill="#ffffff" fill-opacity="0.03" x="370" y="0"></rect><rect width="5" height="3300" fill="#000000" fill-opacity="0.03" x="375" y="0"></rect><rect width="5" height="3300" fill="#ffffff" fill-opacity="0.03" x="380" y="0"></rect><rect width="5" height="3300" fill="#000000" fill-opacity="0.03" x="385" y="0"></rect><rect width="5" height="3300" fill="#ffffff" fill-opacity="0.03" x="390" y="0"></rect><rect width="5" height="3300" fill="#000000" fill-opacity="0.03" x="395" y="0"></rect><rect width="5" height="3300" fill="#ffffff" fill-opacity="0.03" x="400" y="0"></rect><rect width="5" height="3300" fill="#000000" fill-opacity="0.03" x="405" y="0"></rect><rect width="5" height="3300" fill="#ffffff" fill-opacity="0.03" x="410" y="0"></rect><rect width="5" height="3300" fill="#000000" fill-opacity="0.03" x="415" y="0"></rect><rect width="5" height="3300" fill="#ffffff" fill-opacity="0.03" x="420" y="0"></rect><rect width="5" height="3300" fill="#000000" fill-opacity="0.03" x="425" y="0"></rect><rect width="5" height="3300" fill="#ffffff" fill-opacity="0.03" x="430" y="0"></rect><rect width="5" height="3300" fill="#000000" fill-opacity="0.03" x="435" y="0"></rect><rect width="5" height="3300" fill="#ffffff" fill-opacity="0.03" x="440" y="0"></rect><rect width="5" height="3300" fill="#000000" fill-opacity="0.03" x="445" y="0"></rect><rect width="5" height="3300" fill="#ffffff" fill-opacity="0.03" x="450" y="0"></rect><rect width="5" height="3300" fill="#000000" fill-opacity="0.03" x="455" y="0"></rect><rect width="5" height="3300" fill="#ffffff" fill-opacity="0.03" x="460" y="0"></rect><rect width="5" height="3300" fill="#000000" fill-opacity="0.03" x="465" y="0"></rect><rect width="5" height="3300" fill="#ffffff" fill-opacity="0.03" x="470" y="0"></rect><rect width="5" height="3300" fill="#000000" fill-opacity="0.03" x="475" y="0"></rect><rect width="5" height="3300" fill="#ffffff" fill-opacity="0.03" x="480" y="0"></rect><rect width="5" height="3300" fill="#000000" fill-opacity="0.03" x="485" y="0"></rect><rect width="5" height="3300" fill="#ffffff" fill-opacity="0.03" x="490" y="0"></rect><rect width="5" height="3300" fill="#000000" fill-opacity="0.03" x="495" y="0"></rect><rect width="5" height="3300" fill="#ffffff" fill-opacity="0.03" x="500" y="0"></rect><rect width="5" height="3300" fill="#000000" fill-opacity="0.03" x="505" y="0"></rect><rect width="5" height="3300" fill="#ffffff" fill-opacity="0.03" x="510" y="0"></rect><rect width="5" height="3300" fill="#000000" fill-opacity="0.03" x="515" y="0"></rect><rect width="5" height="3300" fill="#ffffff" fill-opacity="0.03" x="520" y="0"></rect><rect width="5" height="3300" fill="#000000" fill-opacity="0.03" x="525" y="0"></rect><rect width="5" height="3300" fill="#ffffff" fill-opacity="0.03" x="530" y="0"></rect><rect width="5" height="3300" fill="#000000" fill-opacity="0.03" x="535" y="0"></rect><rect width="5" height="3300" fill="#ffffff" fill-opacity="0.03" x="540" y="0"></rect><rect width="5" height="3300" fill="#000000" fill-opacity="0.03" x="545" y="0"></rect><rect width="5" height="3300" fill="#ffffff" fill-opacity="0.03" x="550" y="0"></rect><rect width="5" height="3300" fill="#000000" fill-opacity="0.03" x="555" y="0"></rect><rect width="5" height="3300" fill="#ffffff" fill-opacity="0.03" x="560" y="0"></rect><rect width="5" height="3300" fill="#000000" fill-opacity="0.03" x="565" y="0"></rect><rect width="5" height="3300" fill="#ffffff" fill-opacity="0.03" x="570" y="0"></rect><rect width="5" height="3300" fill="#000000" fill-opacity="0.03" x="575" y="0"></rect><rect width="5" height="3300" fill="#ffffff" fill-opacity="0.03" x="580" y="0"></rect><rect width="5" height="3300" fill="#000000" fill-opacity="0.03" x="585" y="0"></rect><rect width="5" height="3300" fill="#ffffff" fill-opacity="0.03" x="590" y="0"></rect><rect width="5" height="3300" fill="#000000" fill-opacity="0.03" x="595" y="0"></rect><rect width="5" height="3300" fill="#ffffff" fill-opacity="0.03" x="600" y="0"></rect><rect width="5" height="3300" fill="#000000" fill-opacity="0.03" x="605" y="0"></rect><rect width="5" height="3300" fill="#ffffff" fill-opacity="0.03" x="610" y="0"></rect><rect width="5" height="3300" fill="#000000" fill-opacity="0.03" x="615" y="0"></rect><rect width="5" height="3300" fill="#ffffff" fill-opacity="0.03" x="620" y="0"></rect><rect width="5" height="3300" fill="#000000" fill-opacity="0.03" x="625" y="0"></rect><rect width="5" height="3300" fill="#ffffff" fill-opacity="0.03" x="630" y="0"></rect><rect width="5" height="3300" fill="#000000" fill-opacity="0.03" x="635" y="0"></rect><rect width="5" height="3300" fill="#ffffff" fill-opacity="0.03" x="640" y="0"></rect><rect width="5" height="3300" fill="#000000" fill-opacity="0.03" x="645" y="0"></rect><rect width="5" height="3300" fill="#ffffff" fill-opacity="0.03" x="650" y="0"></rect><rect width="5" height="3300" fill="#000000" fill-opacity="0.03" x="655" y="0"></rect><rect width="5" height="3300" fill="#ffffff" fill-opacity="0.03" x="660" y="0"></rect><rect width="5" height="3300" fill="#000000" fill-opacity="0.03" x="665" y="0"></rect><rect width="5" height="3300" fill="#ffffff" fill-opacity="0.03" x="670" y="0"></rect><rect width="5" height="3300" fill="#000000" fill-opacity="0.03" x="675" y="0"></rect><rect width="5" height="3300" fill="#ffffff" fill-opacity="0.03" x="680" y="0"></rect><rect width="5" height="3300" fill="#000000" fill-opacity="0.03" x="685" y="0"></rect><rect width="5" height="3300" fill="#ffffff" fill-opacity="0.03" x="690" y="0"></rect><rect width="5" height="3300" fill="#000000" fill-opacity="0.03" x="695" y="0"></rect><rect width="5" height="3300" fill="#ffffff" fill-opacity="0.03" x="700" y="0"></rect><rect width="5" height="3300" fill="#000000" fill-opacity="0.03" x="705" y="0"></rect><rect width="5" height="3300" fill="#ffffff" fill-opacity="0.03" x="710" y="0"></rect><rect width="5" height="3300" fill="#000000" fill-opacity="0.03" x="715" y="0"></rect><rect width="5" height="3300" fill="#ffffff" fill-opacity="0.03" x="720" y="0"></rect><rect width="5" height="3300" fill="#000000" fill-opacity="0.03" x="725" y="0"></rect><rect width="5" height="3300" fill="#ffffff" fill-opacity="0.03" x="730" y="0"></rect><rect width="5" height="3300" fill="#000000" fill-opacity="0.03" x="735" y="0"></rect><rect width="5" height="3300" fill="#ffffff" fill-opacity="0.03" x="740" y="0"></rect><rect width="5" height="3300" fill="#000000" fill-opacity="0.03" x="745" y="0"></rect><rect width="5" height="3300" fill="#ffffff" fill-opacity="0.03" x="750" y="0"></rect><rect width="5" height="3300" fill="#000000" fill-opacity="0.03" x="755" y="0"></rect><rect width="5" height="3300" fill="#ffffff" fill-opacity="0.03" x="760" y="0"></rect><rect width="5" height="3300" fill="#000000" fill-opacity="0.03" x="765" y="0"></rect><rect width="5" height="3300" fill="#ffffff" fill-opacity="0.03" x="770" y="0"></rect><rect width="5" height="3300" fill="#000000" fill-opacity="0.03" x="775" y="0"></rect><rect width="5" height="3300" fill="#ffffff" fill-opacity="0.03" x="780" y="0"></rect><rect width="5" height="3300" fill="#000000" fill-opacity="0.03" x="785" y="0"></rect><rect width="5" height="3300" fill="#ffffff" fill-opacity="0.03" x="790" y="0"></rect><rect width="5" height="3300" fill="#000000" fill-opacity="0.03" x="795" y="0"></rect><rect width="5" height="3300" fill="#ffffff" fill-opacity="0.03" x="800" y="0"></rect><rect width="5" height="3300" fill="#000000" fill-opacity="0.03" x="805" y="0"></rect><rect width="5" height="3300" fill="#ffffff" fill-opacity="0.03" x="810" y="0"></rect><rect width="5" height="3300" fill="#000000" fill-opacity="0.03" x="815" y="0"></rect><rect width="5" height="3300" fill="#ffffff" fill-opacity="0.03" x="820" y="0"></rect><rect width="5" height="3300" fill="#000000" fill-opacity="0.03" x="825" y="0"></rect><rect width="5" height="3300" fill="#ffffff" fill-opacity="0.03" x="830" y="0"></rect><rect width="5" height="3300" fill="#000000" fill-opacity="0.03" x="835" y="0"></rect><rect width="5" height="3300" fill="#ffffff" fill-opacity="0.03" x="840" y="0"></rect><rect width="5" height="3300" fill="#000000" fill-opacity="0.03" x="845" y="0"></rect><rect width="5" height="3300" fill="#ffffff" fill-opacity="0.03" x="850" y="0"></rect><rect width="5" height="3300" fill="#000000" fill-opacity="0.03" x="855" y="0"></rect><rect width="5" height="3300" fill="#ffffff" fill-opacity="0.03" x="860" y="0"></rect><rect width="5" height="3300" fill="#000000" fill-opacity="0.03" x="865" y="0"></rect><rect width="5" height="3300" fill="#ffffff" fill-opacity="0.03" x="870" y="0"></rect><rect width="5" height="3300" fill="#000000" fill-opacity="0.03" x="875" y="0"></rect><rect width="5" height="3300" fill="#ffffff" fill-opacity="0.03" x="880" y="0"></rect><rect width="5" height="3300" fill="#000000" fill-opacity="0.03" x="885" y="0"></rect><rect width="5" height="3300" fill="#ffffff" fill-opacity="0.03" x="890" y="0"></rect><rect width="5" height="3300" fill="#000000" fill-opacity="0.03" x="895" y="0"></rect><rect width="5" height="3300" fill="#ffffff" fill-opacity="0.03" x="900" y="0"></rect><rect width="5" height="3300" fill="#000000" fill-opacity="0.03" x="905" y="0"></rect><rect width="5" height="3300" fill="#ffffff" fill-opacity="0.03" x="910" y="0"></rect><rect width="5" height="3300" fill="#000000" fill-opacity="0.03" x="915" y="0"></rect><rect width="5" height="3300" fill="#ffffff" fill-opacity="0.03" x="920" y="0"></rect><rect width="5" height="3300" fill="#000000" fill-opacity="0.03" x="925" y="0"></rect><rect width="5" height="3300" fill="#ffffff" fill-opacity="0.03" x="930" y="0"></rect><rect width="5" height="3300" fill="#000000" fill-opacity="0.03" x="935" y="0"></rect><rect width="5" height="3300" fill="#ffffff" fill-opacity="0.03" x="940" y="0"></rect><rect width="5" height="3300" fill="#000000" fill-opacity="0.03" x="945" y="0"></rect><rect width="5" height="3300" fill="#ffffff" fill-opacity="0.03" x="950" y="0"></rect><rect width="5" height="3300" fill="#000000" fill-opacity="0.03" x="955" y="0"></rect><rect width="5" height="3300" fill="#ffffff" fill-opacity="0.03" x="960" y="0"></rect><rect width="5" height="3300" fill="#000000" fill-opacity="0.03" x="965" y="0"></rect><rect width="5" height="3300" fill="#ffffff" fill-opacity="0.03" x="970" y="0"></rect><rect width="5" height="3300" fill="#000000" fill-opacity="0.03" x="975" y="0"></rect><rect width="5" height="3300" fill="#ffffff" fill-opacity="0.03" x="980" y="0"></rect><rect width="5" height="3300" fill="#000000" fill-opacity="0.03" x="985" y="0"></rect><rect width="5" height="3300" fill="#ffffff" fill-opacity="0.03" x="990" y="0"></rect><rect width="5" height="3300" fill="#000000" fill-opacity="0.03" x="995" y="0"></rect><rect width="5" height="3300" fill="#ffffff" fill-opacity="0.03" x="1000" y="0"></rect><rect width="5" height="3300" fill="#000000" fill-opacity="0.03" x="1005" y="0"></rect><rect width="5" height="3300" fill="#ffffff" fill-opacity="0.03" x="1010" y="0"></rect><rect width="5" height="3300" fill="#000000" fill-opacity="0.03" x="1015" y="0"></rect><rect width="5" height="3300" fill="#ffffff" fill-opacity="0.03" x="1020" y="0"></rect><rect width="5" height="3300" fill="#000000" fill-opacity="0.03" x="1025" y="0"></rect><rect width="5" height="3300" fill="#ffffff" fill-opacity="0.03" x="1030" y="0"></rect><rect width="5" height="3300" fill="#000000" fill-opacity="0.03" x="1035" y="0"></rect><rect width="5" height="3300" fill="#ffffff" fill-opacity="0.03" x="1040" y="0"></rect><rect width="5" height="3300" fill="#000000" fill-opacity="0.03" x="1045" y="0"></rect><rect width="5" height="3300" fill="#ffffff" fill-opacity="0.03" x="1050" y="0"></rect><rect width="5" height="3300" fill="#000000" fill-opacity="0.03" x="1055" y="0"></rect><rect width="5" height="3300" fill="#ffffff" fill-opacity="0.03" x="1060" y="0"></rect><rect width="5" height="3300" fill="#000000" fill-opacity="0.03" x="1065" y="0"></rect><rect width="5" height="3300" fill="#ffffff" fill-opacity="0.03" x="1070" y="0"></rect><rect width="5" height="3300" fill="#000000" fill-opacity="0.03" x="1075" y="0"></rect><rect width="5" height="3300" fill="#ffffff" fill-opacity="0.03" x="1080" y="0"></rect><rect width="5" height="3300" fill="#000000" fill-opacity="0.03" x="1085" y="0"></rect><rect width="5" height="3300" fill="#ffffff" fill-opacity="0.03" x="1090" y="0"></rect><rect width="5" height="3300" fill="#000000" fill-opacity="0.03" x="1095" y="0"></rect><rect width="5" height="3300" fill="#ffffff" fill-opacity="0.03" x="1100" y="0"></rect><rect width="5" height="3300" fill="#000000" fill-opacity="0.03" x="1105" y="0"></rect><rect width="5" height="3300" fill="#ffffff" fill-opacity="0.03" x="1110" y="0"></rect><rect width="5" height="3300" fill="#000000" fill-opacity="0.03" x="1115" y="0"></rect><rect width="5" height="3300" fill="#ffffff" fill-opacity="0.03" x="1120" y="0"></rect><rect width="5" height="3300" fill="#000000" fill-opacity="0.03" x="1125" y="0"></rect><rect width="5" height="3300" fill="#ffffff" fill-opacity="0.03" x="1130" y="0"></rect><rect width="5" height="3300" fill="#000000" fill-opacity="0.03" x="1135" y="0"></rect><rect width="5" height="3300" fill="#ffffff" fill-opacity="0.03" x="1140" y="0"></rect><rect width="5" height="3300" fill="#000000" fill-opacity="0.03" x="1145" y="0"></rect><rect width="5" height="3300" fill="#ffffff" fill-opacity="0.03" x="1150" y="0"></rect><rect width="5" height="3300" fill="#000000" fill-opacity="0.03" x="1155" y="0"></rect><rect width="5" height="3300" fill="#ffffff" fill-opacity="0.03" x="1160" y="0"></rect><rect width="5" height="3300" fill="#000000" fill-opacity="0.03" x="1165" y="0"></rect><rect width="5" height="3300" fill="#ffffff" fill-opacity="0.03" x="1170" y="0"></rect><rect width="5" height="3300" fill="#000000" fill-opacity="0.03" x="1175" y="0"></rect><rect width="5" height="3300" fill="#ffffff" fill-opacity="0.03" x="1180" y="0"></rect><rect width="5" height="3300" fill="#000000" fill-opacity="0.03" x="1185" y="0"></rect><rect width="5" height="3300" fill="#ffffff" fill-opacity="0.03" x="1190" y="0"></rect><rect width="5" height="3300" fill="#000000" fill-opacity="0.03" x="1195" y="0"></rect><rect width="5" height="3300" fill="#ffffff" fill-opacity="0.03" x="1200" y="0"></rect><rect width="5" height="3300" fill="#000000" fill-opacity="0.03" x="1205" y="0"></rect><rect width="5" height="3300" fill="#ffffff" fill-opacity="0.03" x="1210" y="0"></rect><rect width="5" height="3300" fill="#000000" fill-opacity="0.03" x="1215" y="0"></rect><rect width="5" height="3300" fill="#ffffff" fill-opacity="0.03" x="1220" y="0"></rect><rect width="5" height="3300" fill="#000000" fill-opacity="0.03" x="1225" y="0"></rect><rect width="5" height="3300" fill="#ffffff" fill-opacity="0.03" x="1230" y="0"></rect><rect width="5" height="3300" fill="#000000" fill-opacity="0.03" x="1235" y="0"></rect><rect width="5" height="3300" fill="#ffffff" fill-opacity="0.03" x="1240" y="0"></rect><rect width="5" height="3300" fill="#000000" fill-opacity="0.03" x="1245" y="0"></rect><rect width="5" height="3300" fill="#ffffff" fill-opacity="0.03" x="1250" y="0"></rect><rect width="5" height="3300" fill="#000000" fill-opacity="0.03" x="1255" y="0"></rect><rect width="5" height="3300" fill="#ffffff" fill-opacity="0.03" x="1260" y="0"></rect><rect width="5" height="3300" fill="#000000" fill-opacity="0.03" x="1265" y="0"></rect><rect width="5" height="3300" fill="#ffffff" fill-opacity="0.03" x="1270" y="0"></rect><rect width="5" height="3300" fill="#000000" fill-opacity="0.03" x="1275" y="0"></rect><rect width="5" height="3300" fill="#ffffff" fill-opacity="0.03" x="1280" y="0"></rect><rect width="5" height="3300" fill="#000000" fill-opacity="0.03" x="1285" y="0"></rect><rect width="5" height="3300" fill="#ffffff" fill-opacity="0.03" x="1290" y="0"></rect><rect width="5" height="3300" fill="#000000" fill-opacity="0.03" x="1295" y="0"></rect><rect width="5" height="3300" fill="#ffffff" fill-opacity="0.03" x="1300" y="0"></rect><rect width="5" height="3300" fill="#000000" fill-opacity="0.03" x="1305" y="0"></rect><rect width="5" height="3300" fill="#ffffff" fill-opacity="0.03" x="1310" y="0"></rect><rect width="5" height="3300" fill="#000000" fill-opacity="0.03" x="1315" y="0"></rect><rect width="5" height="3300" fill="#ffffff" fill-opacity="0.03" x="1320" y="0"></rect><rect width="5" height="3300" fill="#000000" fill-opacity="0.03" x="1325" y="0"></rect><rect width="5" height="3300" fill="#ffffff" fill-opacity="0.03" x="1330" y="0"></rect><rect width="5" height="3300" fill="#000000" fill-opacity="0.03" x="1335" y="0"></rect><rect width="5" height="3300" fill="#ffffff" fill-opacity="0.03" x="1340" y="0"></rect><rect width="5" height="3300" fill="#000000" fill-opacity="0.03" x="1345" y="0"></rect><rect width="5" height="3300" fill="#ffffff" fill-opacity="0.03" x="1350" y="0"></rect><rect width="5" height="3300" fill="#000000" fill-opacity="0.03" x="1355" y="0"></rect><rect width="5" height="3300" fill="#ffffff" fill-opacity="0.03" x="1360" y="0"></rect><rect width="5" height="3300" fill="#000000" fill-opacity="0.03" x="1365" y="0"></rect><rect width="5" height="3300" fill="#ffffff" fill-opacity="0.03" x="1370" y="0"></rect><rect width="5" height="3300" fill="#000000" fill-opacity="0.03" x="1375" y="0"></rect><rect width="5" height="3300" fill="#ffffff" fill-opacity="0.03" x="1380" y="0"></rect><rect width="5" height="3300" fill="#000000" fill-opacity="0.03" x="1385" y="0"></rect><rect width="5" height="3300" fill="#ffffff" fill-opacity="0.03" x="1390" y="0"></rect><rect width="5" height="3300" fill="#000000" fill-opacity="0.03" x="1395" y="0"></rect><rect width="5" height="3300" fill="#ffffff" fill-opacity="0.03" x="1400" y="0"></rect><rect width="5" height="3300" fill="#000000" fill-opacity="0.03" x="1405" y="0"></rect><rect width="5" height="3300" fill="#ffffff" fill-opacity="0.03" x="1410" y="0"></rect><rect width="5" height="3300" fill="#000000" fill-opacity="0.03" x="1415" y="0"></rect><rect width="5" height="3300" fill="#ffffff" fill-opacity="0.03" x="1420" y="0"></rect><rect width="5" height="3300" fill="#000000" fill-opacity="0.03" x="1425" y="0"></rect><rect width="5" height="3300" fill="#ffffff" fill-opacity="0.03" x="1430" y="0"></rect><rect width="5" height="3300" fill="#000000" fill-opacity="0.03" x="1435" y="0"></rect><rect width="5" height="3300" fill="#ffffff" fill-opacity="0.03" x="1440" y="0"></rect><rect width="5" height="3300" fill="#000000" fill-opacity="0.03" x="1445" y="0"></rect><rect width="5" height="3300" fill="#ffffff" fill-opacity="0.03" x="1450" y="0"></rect><rect width="5" height="3300" fill="#000000" fill-opacity="0.03" x="1455" y="0"></rect><rect width="5" height="3300" fill="#ffffff" fill-opacity="0.03" x="1460" y="0"></rect><rect width="5" height="3300" fill="#000000" fill-opacity="0.03" x="1465" y="0"></rect><rect width="5" height="3300" fill="#ffffff" fill-opacity="0.03" x="1470" y="0"></rect><rect width="5" height="3300" fill="#000000" fill-opacity="0.03" x="1475" y="0"></rect><rect width="5" height="3300" fill="#ffffff" fill-opacity="0.03" x="1480" y="0"></rect><rect width="5" height="3300" fill="#000000" fill-opacity="0.03" x="1485" y="0"></rect><rect width="5" height="3300" fill="#ffffff" fill-opacity="0.03" x="1490" y="0"></rect><rect width="5" height="3300" fill="#000000" fill-opacity="0.03" x="1495" y="0"></rect><rect width="5" height="3300" fill="#ffffff" fill-opacity="0.03" x="1500" y="0"></rect><rect width="5" height="3300" fill="#000000" fill-opacity="0.03" x="1505" y="0"></rect><rect width="5" height="3300" fill="#ffffff" fill-opacity="0.03" x="1510" y="0"></rect><rect width="5" height="3300" fill="#000000" fill-opacity="0.03" x="1515" y="0"></rect><rect width="5" height="3300" fill="#ffffff" fill-opacity="0.03" x="1520" y="0"></rect><rect width="5" height="3300" fill="#000000" fill-opacity="0.03" x="1525" y="0"></rect><rect width="5" height="3300" fill="#ffffff" fill-opacity="0.03" x="1530" y="0"></rect><rect width="5" height="3300" fill="#000000" fill-opacity="0.03" x="1535" y="0"></rect><rect width="5" height="3300" fill="#ffffff" fill-opacity="0.03" x="1540" y="0"></rect><rect width="5" height="3300" fill="#000000" fill-opacity="0.03" x="1545" y="0"></rect><rect width="5" height="3300" fill="#ffffff" fill-opacity="0.03" x="1550" y="0"></rect><rect width="5" height="3300" fill="#000000" fill-opacity="0.03" x="1555" y="0"></rect><rect width="5" height="3300" fill="#ffffff" fill-opacity="0.03" x="1560" y="0"></rect><rect width="5" height="3300" fill="#000000" fill-opacity="0.03" x="1565" y="0"></rect><rect width="5" height="3300" fill="#ffffff" fill-opacity="0.03" x="1570" y="0"></rect><rect width="5" height="3300" fill="#000000" fill-opacity="0.03" x="1575" y="0"></rect><rect width="5" height="3300" fill="#ffffff" fill-opacity="0.03" x="1580" y="0"></rect><rect width="5" height="3300" fill="#000000" fill-opacity="0.03" x="1585" y="0"></rect><rect width="5" height="3300" fill="#ffffff" fill-opacity="0.03" x="1590" y="0"></rect><rect width="5" height="3300" fill="#000000" fill-opacity="0.03" x="1595" y="0"></rect><rect width="5" height="3300" fill="#ffffff" fill-opacity="0.03" x="1600" y="0"></rect><rect width="5" height="3300" fill="#000000" fill-opacity="0.03" x="1605" y="0"></rect><rect width="5" height="3300" fill="#ffffff" fill-opacity="0.03" x="1610" y="0"></rect><rect width="5" height="3300" fill="#000000" fill-opacity="0.03" x="1615" y="0"></rect><rect width="5" height="3300" fill="#ffffff" fill-opacity="0.03" x="1620" y="0"></rect><rect width="5" height="3300" fill="#000000" fill-opacity="0.03" x="1625" y="0"></rect><rect width="5" height="3300" fill="#ffffff" fill-opacity="0.03" x="1630" y="0"></rect><rect width="5" height="3300" fill="#000000" fill-opacity="0.03" x="1635" y="0"></rect><rect width="5" height="3300" fill="#ffffff" fill-opacity="0.03" x="1640" y="0"></rect><rect width="5" height="3300" fill="#000000" fill-opacity="0.03" x="1645" y="0"></rect><rect width="5" height="3300" fill="#ffffff" fill-opacity="0.03" x="1650" y="0"></rect><rect width="5" height="3300" fill="#000000" fill-opacity="0.03" x="1655" y="0"></rect><rect width="5" height="3300" fill="#ffffff" fill-opacity="0.03" x="1660" y="0"></rect><rect width="5" height="3300" fill="#000000" fill-opacity="0.03" x="1665" y="0"></rect><rect width="5" height="3300" fill="#ffffff" fill-opacity="0.03" x="1670" y="0"></rect><rect width="5" height="3300" fill="#000000" fill-opacity="0.03" x="1675" y="0"></rect><rect width="5" height="3300" fill="#ffffff" fill-opacity="0.03" x="1680" y="0"></rect><rect width="5" height="3300" fill="#000000" fill-opacity="0.03" x="1685" y="0"></rect><rect width="5" height="3300" fill="#ffffff" fill-opacity="0.03" x="1690" y="0"></rect><rect width="5" height="3300" fill="#000000" fill-opacity="0.03" x="1695" y="0"></rect><rect width="5" height="3300" fill="#ffffff" fill-opacity="0.03" x="1700" y="0"></rect><rect width="5" height="3300" fill="#000000" fill-opacity="0.03" x="1705" y="0"></rect><rect width="5" height="3300" fill="#ffffff" fill-opacity="0.03" x="1710" y="0"></rect><rect width="5" height="3300" fill="#000000" fill-opacity="0.03" x="1715" y="0"></rect><rect width="5" height="3300" fill="#ffffff" fill-opacity="0.03" x="1720" y="0"></rect><rect width="5" height="3300" fill="#000000" fill-opacity="0.03" x="1725" y="0"></rect><rect width="5" height="3300" fill="#ffffff" fill-opacity="0.03" x="1730" y="0"></rect><rect width="5" height="3300" fill="#000000" fill-opacity="0.03" x="1735" y="0"></rect><rect width="5" height="3300" fill="#ffffff" fill-opacity="0.03" x="1740" y="0"></rect><rect width="5" height="3300" fill="#000000" fill-opacity="0.03" x="1745" y="0"></rect><rect width="5" height="3300" fill="#ffffff" fill-opacity="0.03" x="1750" y="0"></rect><rect width="5" height="3300" fill="#000000" fill-opacity="0.03" x="1755" y="0"></rect><rect width="5" height="3300" fill="#ffffff" fill-opacity="0.03" x="1760" y="0"></rect><rect width="5" height="3300" fill="#000000" fill-opacity="0.03" x="1765" y="0"></rect><rect width="5" height="3300" fill="#ffffff" fill-opacity="0.03" x="1770" y="0"></rect><rect width="5" height="3300" fill="#000000" fill-opacity="0.03" x="1775" y="0"></rect><rect width="5" height="3300" fill="#ffffff" fill-opacity="0.03" x="1780" y="0"></rect><rect width="5" height="3300" fill="#000000" fill-opacity="0.03" x="1785" y="0"></rect><rect width="5" height="3300" fill="#ffffff" fill-opacity="0.03" x="1790" y="0"></rect><rect width="5" height="3300" fill="#000000" fill-opacity="0.03" x="1795" y="0"></rect><rect width="5" height="3300" fill="#ffffff" fill-opacity="0.03" x="1800" y="0"></rect><rect width="5" height="3300" fill="#000000" fill-opacity="0.03" x="1805" y="0"></rect><rect width="5" height="3300" fill="#ffffff" fill-opacity="0.03" x="1810" y="0"></rect><rect width="5" height="3300" fill="#000000" fill-opacity="0.03" x="1815" y="0"></rect><rect width="5" height="3300" fill="#ffffff" fill-opacity="0.03" x="1820" y="0"></rect><rect width="5" height="3300" fill="#000000" fill-opacity="0.03" x="1825" y="0"></rect><rect width="5" height="3300" fill="#ffffff" fill-opacity="0.03" x="1830" y="0"></rect><rect width="5" height="3300" fill="#000000" fill-opacity="0.03" x="1835" y="0"></rect><rect width="5" height="3300" fill="#ffffff" fill-opacity="0.03" x="1840" y="0"></rect><rect width="5" height="3300" fill="#000000" fill-opacity="0.03" x="1845" y="0"></rect><rect width="5" height="3300" fill="#ffffff" fill-opacity="0.03" x="1850" y="0"></rect><rect width="5" height="3300" fill="#000000" fill-opacity="0.03" x="1855" y="0"></rect><rect width="5" height="3300" fill="#ffffff" fill-opacity="0.03" x="1860" y="0"></rect><rect width="5" height="3300" fill="#000000" fill-opacity="0.03" x="1865" y="0"></rect><rect width="5" height="3300" fill="#ffffff" fill-opacity="0.03" x="1870" y="0"></rect><rect width="5" height="3300" fill="#000000" fill-opacity="0.03" x="1875" y="0"></rect><rect width="5" height="3300" fill="#ffffff" fill-opacity="0.03" x="1880" y="0"></rect><rect width="5" height="3300" fill="#000000" fill-opacity="0.03" x="1885" y="0"></rect><rect width="5" height="3300" fill="#ffffff" fill-opacity="0.03" x="1890" y="0"></rect><rect width="5" height="3300" fill="#000000" fill-opacity="0.03" x="1895" y="0"></rect><rect width="5" height="3300" fill="#ffffff" fill-opacity="0.03" x="1900" y="0"></rect><rect width="5" height="3300" fill="#000000" fill-opacity="0.03" x="1905" y="0"></rect><rect width="5" height="3300" fill="#ffffff" fill-opacity="0.03" x="1910" y="0"></rect><rect width="5" height="3300" fill="#000000" fill-opacity="0.03" x="1915" y="0"></rect><rect width="5" height="3300" fill="#ffffff" fill-opacity="0.03" x="1920" y="0"></rect><rect width="5" height="3300" fill="#000000" fill-opacity="0.03" x="1925" y="0"></rect><rect width="5" height="3300" fill="#ffffff" fill-opacity="0.03" x="1930" y="0"></rect><rect width="5" height="3300" fill="#000000" fill-opacity="0.03" x="1935" y="0"></rect><rect width="5" height="3300" fill="#ffffff" fill-opacity="0.03" x="1940" y="0"></rect><rect width="5" height="3300" fill="#000000" fill-opacity="0.03" x="1945" y="0"></rect><rect width="5" height="3300" fill="#ffffff" fill-opacity="0.03" x="1950" y="0"></rect><rect width="5" height="3300" fill="#000000" fill-opacity="0.03" x="1955" y="0"></rect><rect width="5" height="3300" fill="#ffffff" fill-opacity="0.03" x="1960" y="0"></rect><rect width="5" height="3300" fill="#000000" fill-opacity="0.03" x="1965" y="0"></rect><rect width="5" height="3300" fill="#ffffff" fill-opacity="0.03" x="1970" y="0"></rect><rect width="5" height="3300" fill="#000000" fill-opacity="0.03" x="1975" y="0"></rect><rect width="5" height="3300" fill="#ffffff" fill-opacity="0.03" x="1980" y="0"></rect><rect width="5" height="3300" fill="#000000" fill-opacity="0.03" x="1985" y="0"></rect><rect width="5" height="3300" fill="#ffffff" fill-opacity="0.03" x="1990" y="0"></rect><rect width="5" height="3300" fill="#000000" fill-opacity="0.03" x="1995" y="0"></rect><rect width="5" height="3300" fill="#ffffff" fill-opacity="0.03" x="2000" y="0"></rect><rect width="5" height="3300" fill="#000000" fill-opacity="0.03" x="2005" y="0"></rect><rect width="5" height="3300" fill="#ffffff" fill-opacity="0.03" x="2010" y="0"></rect><rect width="5" height="3300" fill="#000000" fill-opacity="0.03" x="2015" y="0"></rect><rect width="5" height="3300" fill="#ffffff" fill-opacity="0.03" x="2020" y="0"></rect><rect width="5" height="3300" fill="#000000" fill-opacity="0.03" x="2025" y="0"></rect><rect width="5" height="3300" fill="#ffffff" fill-opacity="0.03" x="2030" y="0"></rect><rect width="5" height="3300" fill="#000000" fill-opacity="0.03" x="2035" y="0"></rect><rect width="5" height="3300" fill="#ffffff" fill-opacity="0.03" x="2040" y="0"></rect><rect width="5" height="3300" fill="#000000" fill-opacity="0.03" x="2045" y="0"></rect><rect width="5" height="3300" fill="#ffffff" fill-opacity="0.03" x="2050" y="0"></rect><rect width="5" height="3300" fill="#000000" fill-opacity="0.03" x="2055" y="0"></rect><rect width="5" height="3300" fill="#ffffff" fill-opacity="0.03" x="2060" y="0"></rect><rect width="5" height="3300" fill="#000000" fill-opacity="0.03" x="2065" y="0"></rect><rect width="5" height="3300" fill="#ffffff" fill-opacity="0.03" x="2070" y="0"></rect><rect width="5" height="3300" fill="#000000" fill-opacity="0.03" x="2075" y="0"></rect><rect width="5" height="3300" fill="#ffffff" fill-opacity="0.03" x="2080" y="0"></rect><rect width="5" height="3300" fill="#000000" fill-opacity="0.03" x="2085" y="0"></rect><rect width="5" height="3300" fill="#ffffff" fill-opacity="0.03" x="2090" y="0"></rect><rect width="5" height="3300" fill="#000000" fill-opacity="0.03" x="2095" y="0"></rect><rect width="5" height="3300" fill="#ffffff" fill-opacity="0.03" x="2100" y="0"></rect><rect width="5" height="3300" fill="#000000" fill-opacity="0.03" x="2105" y="0"></rect><rect width="5" height="3300" fill="#ffffff" fill-opacity="0.03" x="2110" y="0"></rect><rect width="5" height="3300" fill="#000000" fill-opacity="0.03" x="2115" y="0"></rect><rect width="5" height="3300" fill="#ffffff" fill-opacity="0.03" x="2120" y="0"></rect><rect width="5" height="3300" fill="#000000" fill-opacity="0.03" x="2125" y="0"></rect><rect width="5" height="3300" fill="#ffffff" fill-opacity="0.03" x="2130" y="0"></rect><rect width="5" height="3300" fill="#000000" fill-opacity="0.03" x="2135" y="0"></rect><rect width="5" height="3300" fill="#ffffff" fill-opacity="0.03" x="2140" y="0"></rect><rect width="5" height="3300" fill="#000000" fill-opacity="0.03" x="2145" y="0"></rect><rect width="5" height="3300" fill="#ffffff" fill-opacity="0.03" x="2150" y="0"></rect><rect width="5" height="3300" fill="#000000" fill-opacity="0.03" x="2155" y="0"></rect><rect width="5" height="3300" fill="#ffffff" fill-opacity="0.03" x="2160" y="0"></rect><rect width="5" height="3300" fill="#000000" fill-opacity="0.03" x="2165" y="0"></rect><rect width="5" height="3300" fill="#ffffff" fill-opacity="0.03" x="2170" y="0"></rect><rect width="5" height="3300" fill="#000000" fill-opacity="0.03" x="2175" y="0"></rect><rect width="5" height="3300" fill="#ffffff" fill-opacity="0.03" x="2180" y="0"></rect><rect width="5" height="3300" fill="#000000" fill-opacity="0.03" x="2185" y="0"></rect><rect width="5" height="3300" fill="#ffffff" fill-opacity="0.03" x="2190" y="0"></rect><rect width="5" height="3300" fill="#000000" fill-opacity="0.03" x="2195" y="0"></rect><rect width="5" height="3300" fill="#ffffff" fill-opacity="0.03" x="2200" y="0"></rect><rect width="5" height="3300" fill="#000000" fill-opacity="0.03" x="2205" y="0"></rect><rect width="5" height="3300" fill="#ffffff" fill-opacity="0.03" x="2210" y="0"></rect><rect width="5" height="3300" fill="#000000" fill-opacity="0.03" x="2215" y="0"></rect><rect width="5" height="3300" fill="#ffffff" fill-opacity="0.03" x="2220" y="0"></rect><rect width="5" height="3300" fill="#000000" fill-opacity="0.03" x="2225" y="0"></rect><rect width="5" height="3300" fill="#ffffff" fill-opacity="0.03" x="2230" y="0"></rect><rect width="5" height="3300" fill="#000000" fill-opacity="0.03" x="2235" y="0"></rect><rect width="5" height="3300" fill="#ffffff" fill-opacity="0.03" x="2240" y="0"></rect><rect width="5" height="3300" fill="#000000" fill-opacity="0.03" x="2245" y="0"></rect><rect width="5" height="3300" fill="#ffffff" fill-opacity="0.03" x="2250" y="0"></rect><rect width="5" height="3300" fill="#000000" fill-opacity="0.03" x="2255" y="0"></rect><rect width="5" height="3300" fill="#ffffff" fill-opacity="0.03" x="2260" y="0"></rect><rect width="5" height="3300" fill="#000000" fill-opacity="0.03" x="2265" y="0"></rect><rect width="5" height="3300" fill="#ffffff" fill-opacity="0.03" x="2270" y="0"></rect><rect width="5" height="3300" fill="#000000" fill-opacity="0.03" x="2275" y="0"></rect><rect width="5" height="3300" fill="#ffffff" fill-opacity="0.03" x="2280" y="0"></rect><rect width="5" height="3300" fill="#000000" fill-opacity="0.03" x="2285" y="0"></rect><rect width="5" height="3300" fill="#ffffff" fill-opacity="0.03" x="2290" y="0"></rect><rect width="5" height="3300" fill="#000000" fill-opacity="0.03" x="2295" y="0"></rect><rect width="5" height="3300" fill="#ffffff" fill-opacity="0.03" x="2300" y="0"></rect><rect width="5" height="3300" fill="#000000" fill-opacity="0.03" x="2305" y="0"></rect><rect width="5" height="3300" fill="#ffffff" fill-opacity="0.03" x="2310" y="0"></rect><rect width="5" height="3300" fill="#000000" fill-opacity="0.03" x="2315" y="0"></rect><rect width="5" height="3300" fill="#ffffff" fill-opacity="0.03" x="2320" y="0"></rect><rect width="5" height="3300" fill="#000000" fill-opacity="0.03" x="2325" y="0"></rect><rect width="5" height="3300" fill="#ffffff" fill-opacity="0.03" x="2330" y="0"></rect><rect width="5" height="3300" fill="#000000" fill-opacity="0.03" x="2335" y="0"></rect><rect width="5" height="3300" fill="#ffffff" fill-opacity="0.03" x="2340" y="0"></rect><rect width="5" height="3300" fill="#000000" fill-opacity="0.03" x="2345" y="0"></rect><rect width="5" height="3300" fill="#ffffff" fill-opacity="0.03" x="2350" y="0"></rect><rect width="5" height="3300" fill="#000000" fill-opacity="0.03" x="2355" y="0"></rect><rect width="5" height="3300" fill="#ffffff" fill-opacity="0.03" x="2360" y="0"></rect><rect width="5" height="3300" fill="#000000" fill-opacity="0.03" x="2365" y="0"></rect><rect width="5" height="3300" fill="#ffffff" fill-opacity="0.03" x="2370" y="0"></rect><rect width="5" height="3300" fill="#000000" fill-opacity="0.03" x="2375" y="0"></rect><rect width="5" height="3300" fill="#ffffff" fill-opacity="0.03" x="2380" y="0"></rect><rect width="5" height="3300" fill="#000000" fill-opacity="0.03" x="2385" y="0"></rect><rect width="5" height="3300" fill="#ffffff" fill-opacity="0.03" x="2390" y="0"></rect><rect width="5" height="3300" fill="#000000" fill-opacity="0.03" x="2395" y="0"></rect><rect width="5" height="3300" fill="#ffffff" fill-opacity="0.03" x="2400" y="0"></rect><rect width="5" height="3300" fill="#000000" fill-opacity="0.03" x="2405" y="0"></rect><rect width="5" height="3300" fill="#ffffff" fill-opacity="0.03" x="2410" y="0"></rect><rect width="5" height="3300" fill="#000000" fill-opacity="0.03" x="2415" y="0"></rect><rect width="5" height="3300" fill="#ffffff" fill-opacity="0.03" x="2420" y="0"></rect><rect width="5" height="3300" fill="#000000" fill-opacity="0.03" x="2425" y="0"></rect><rect width="5" height="3300" fill="#ffffff" fill-opacity="0.03" x="2430" y="0"></rect><rect width="5" height="3300" fill="#000000" fill-opacity="0.03" x="2435" y="0"></rect><rect width="5" height="3300" fill="#ffffff" fill-opacity="0.03" x="2440" y="0"></rect><rect width="5" height="3300" fill="#000000" fill-opacity="0.03" x="2445" y="0"></rect><rect width="5" height="3300" fill="#ffffff" fill-opacity="0.03" x="2450" y="0"></rect><rect width="5" height="3300" fill="#000000" fill-opacity="0.03" x="2455" y="0"></rect><rect width="5" height="3300" fill="#ffffff" fill-opacity="0.03" x="2460" y="0"></rect><rect width="5" height="3300" fill="#000000" fill-opacity="0.03" x="2465" y="0"></rect><rect width="5" height="3300" fill="#ffffff" fill-opacity="0.03" x="2470" y="0"></rect><rect width="5" height="3300" fill="#000000" fill-opacity="0.03" x="2475" y="0"></rect><rect width="5" height="3300" fill="#ffffff" fill-opacity="0.03" x="2480" y="0"></rect><rect width="5" height="3300" fill="#000000" fill-opacity="0.03" x="2485" y="0"></rect><rect width="5" height="3300" fill="#ffffff" fill-opacity="0.03" x="2490" y="0"></rect><rect width="5" height="3300" fill="#000000" fill-opacity="0.03" x="2495" y="0"></rect><rect width="5" height="3300" fill="#ffffff" fill-opacity="0.03" x="2500" y="0"></rect><rect width="5" height="3300" fill="#000000" fill-opacity="0.03" x="2505" y="0"></rect><rect width="5" height="3300" fill="#ffffff" fill-opacity="0.03" x="2510" y="0"></rect><rect width="5" height="3300" fill="#000000" fill-opacity="0.03" x="2515" y="0"></rect><rect width="5" height="3300" fill="#ffffff" fill-opacity="0.03" x="2520" y="0"></rect><rect width="5" height="3300" fill="#000000" fill-opacity="0.03" x="2525" y="0"></rect><rect width="5" height="3300" fill="#ffffff" fill-opacity="0.03" x="2530" y="0"></rect><rect width="5" height="3300" fill="#000000" fill-opacity="0.03" x="2535" y="0"></rect><rect width="5" height="3300" fill="#ffffff" fill-opacity="0.03" x="2540" y="0"></rect><rect width="5" height="3300" fill="#000000" fill-opacity="0.03" x="2545" y="0"></rect></svg>