<svg fill="none" height="135" viewBox="0 0 182 135" width="182" xmlns="http://www.w3.org/2000/svg"
    xmlns:xlink="http://www.w3.org/1999/xlink">
    <filter id="a" color-interpolation-filters="sRGB" filterUnits="userSpaceOnUse" height="20.6955" width="21.6126"
        x="22.5123" y="97.0229">
        <feFlood flood-opacity="0" result="BackgroundImageFix" />
        <feColorMatrix in="SourceAlpha" result="hardAlpha" type="matrix"
            values="0 0 0 0 0 0 0 0 0 0 0 0 0 0 0 0 0 0 127 0" />
        <feOffset />
        <feGaussianBlur stdDeviation="2.83492" />
        <feColorMatrix type="matrix" values="0 0 0 0 1 0 0 0 0 1 0 0 0 0 1 0 0 0 0.75 0" />
        <feBlend in2="BackgroundImageFix" mode="normal" result="effect1_dropShadow_927_1084" />
        <feBlend in="SourceGraphic" in2="effect1_dropShadow_927_1084" mode="normal" result="shape" />
    </filter>
    <path
        d="m146.434 101.455-4.02 32.812-48.3526-1.758-6.8945-.25v-19.419l-.9866 1.146-8.8506 10.262-3.0391 3.079-4.5245-1.134-.5103-.131-.2665-2.602-1.9107-18.824s10.0413-20.2584 17.5765-28.4627c3.4757-3.7931 6.8889-6.7924 10.4722-9.032 4.1787-2.5968 8.5957-4.156 13.6357-4.6947.426-.0453.862-.0963 1.299-.153 8.578-1.0887 19.062-3.6798 32.046 4.6776h.017c.873.5556 1.916.9809 2.636 1.8313 5.131 6.0838 1.673 32.6475 1.673 32.6475z"
        fill="#d9ddff" />
    <path
        d="m87.1498 112.857-.9865 1.146-8.8506 10.262-3.0391 3.079-4.5246-1.134-.7767-2.733-1.9108-18.824s10.0413-20.2583 17.5766-28.4626c3.4756-3.7931 6.8888-6.7925 10.4721-9.0321-1.7576 1.82-7.5522 8.6862-8.1929 20.7006-.618 11.5438.2552 21.3191.2325 24.9981z"
        fill="#a49fc8" />
    <path
        d="m142.092 66.9886c-1.559-.085-3.81-.1814-6.248-.1814-4.536 0-5.398 2.7045-7.235 4.8591-1.831 2.1602-7.45 3.3508-12.74 3.5663s-10.041-3.6741-10.041-6.8038c0-3.1298 2.432-4.5926 2.432-4.5926l1.786-1.5252c8.579-1.0886 19.062-3.6797 32.046 4.6776z"
        fill="#a49fc8" />
    <path
        d="m146.417 101.472-4.02 32.811-48.3521-1.757c2.5685-2.784 7.8641-8.148 12.3381-10.263 6.174-2.914 11.662-4.11 18.857-5.653 7.201-1.542 14.402-7.37 16.29-10.631 1.882-3.254 2.568-8.0565 3.77-8.0565s1.117 3.5495 1.117 3.5495z"
        fill="#a49fc8" />
    <path d="m93.2814 34.3818s-1.7746 4.8137 0 8.3631c1.7747 3.5493 3.1695 4.5642 5.0689 4.5642l-2.6592-14.7019z"
        fill="#60f0f8" />
    <path
        d="m126.172 61.5522c.788 3.9008 2.307 6.2425.487 7.7053-1.893 1.5139-12.864 6.0497-17.967.3742 0 0-1.582-.5443-1.316-2.6875.108-.8845.511-2.0071.885-3.1071.533-1.5648 1.015-3.0787.544-3.7591-.164-.2324-.323-.3912-.493-.4933-.664-.4139-1.463-.0453-3.164-.754-2.143-.8959-6.8946-5.7946-7.9038-14.237s-1.6556-15.0478-.5556-18.8069c1.1056-3.7648 3.7474-10.2284 11.8274-10.2284 8.079 0 16.153-1.1737 20.264 8.0795 4.116 9.2532-2.313 26.8921-2.313 26.8921s-.063.3629-.153.9752c-.278 1.9561-.8 6.4466-.222 9.6161.029.1474.057.2891.08.4309z"
        fill="#f050f8" />
    <path
        d="m115.558 46.7926c-.125.1191-1.049.1871-2.381.2268l-.363-1.0886v1.0943c-.839.017-1.82.0226-2.852.0226l-.085-1.8143-.431 1.8087s-.046.0056-.068 0l-.199-.7825-.249.7825c-1.661-.0114-3.379-.034-4.831-.0624v-1.8427l-.38 1.837c-.419-.0113-.816-.0226-1.173-.0283l-.074-.9696-.233.9583c-.589-.0114-1.065-.0227-1.366-.0284-.232-.0113-.454-.1474-.516-.3742-.6066-2.2566 2.886-4.9044 8.93-5.0972 6.367-.2041 6.776 4.8534 6.271 5.358z"
        fill="#2d1a83" />
    <path
        d="m102.069 17.7909s1.696 3.1695 7.865 5.5791c6.163 2.4097 10.988 2.6819 12.331 7.2348 1.339 4.5585 7.371 8.8449 7.371 8.8449l-3.487 12.0598s4.423-1.7406 5.364-3.6174c.941-1.8767 2.546-6.0327 5.228-9.7861 2.681-3.7535 7.637-10.8578 7.773-14.4751.136-3.6174-3.084-7.7734-5.494-11.1243-2.41-3.35087-1.072-8.98103-8.579-10.05263-7.506-1.0716-10.455 2.0128-10.455 2.0128s.312-3.946213-3.974-3.27717c-4.287.66904-5.494 3.34521-5.494 3.34521s-10.501-5.56213-16.0008-3.14677c-5.4941 2.40968-5.6302 12.19586-4.5586 14.47516 1.0717 2.2792 1.0717 9.2475 1.0717 11.7933 0 2.5457 1.202 8.2609 5.4941 10.2737 0 0-2.0639-16.4992 5.5446-20.1393z"
        fill="#2d1a83" />
    <path
        d="m126.091 61.1213c.028.1474.057.2891.079.4309-.913-.7995-2.421-1.7577-3.929-1.1737-2.404.9355-2.653 1.82-5.108 1.9164-2.45.0964-3.828-.7371-5.744-.1984-1.259.3572-2.461 1.202-3.13 1.7406.533-1.5649 1.015-3.0787.545-3.7591-.165-.2325-.324-.3912-.494-.4933.97.1531 3.215.3742 5.534-.2835 3.096-.8845 8.006-3.7307 9.769-5.3069 1.769-1.5706 2.535-2.4721 2.535-2.4721l.164-.017c-.278 1.9561-.799 6.4466-.221 9.6161z"
        fill="#bb00d4" />
    <path
        d="m129.777 47.8133s6.339 1.5195 7.859-6.4636c1.519-7.9832-1.9-8.8733-4.054-9.5027-2.155-.6293-7.603-.2551-8.998 5.8286-1.395 6.0838 1.519 9.6331 5.193 10.1377z"
        fill="#60f0f8" />
    <path
        d="m133.184 31.9269h-2.268v-14.4297c0-8.39709-6.832-15.22926-15.229-15.22926h-4.105c-.584 0-1.066.47627-1.066 1.06593v1.21335h-2.268v-1.21335c0-1.83703 1.497-3.33387 3.334-3.33387h4.105c9.65 0 17.497 7.85274 17.497 17.4972z"
        fill="#60f0f8" />
    <path
        d="m136.723 38.1169c.102-1.7973-.301-3.5549-2.036-4.0425-2.086-.584-4.428-.499-5.601 1.837-1.168 2.3416-2.677 9.3609 1.423 10.1944 2.948.601 4.74-2.0695 5.533-4.5246.284-.8788.613-2.1829.681-3.4699z"
        fill="#bdf2ff" />
    <path d="m108.26 3.46539 2.256 1.07727-2.137.62935-.658-.65769z" fill="#2d1a83" />
    <path
        d="m124.471 56.0699h-13.914v-2.2679h13.914c3.09 0 5.602-2.5118 5.602-5.6019v-1.1736h2.268v1.1736c0 4.3375-3.533 7.8698-7.87 7.8698z"
        fill="#60f0f8" />
    <path
        d="m113.923 52.673h-5.437c-1.203 0-2.177.9735-2.177 2.1744 0 1.2008.974 2.1744 2.177 2.1744h5.437c1.203 0 2.177-.9736 2.177-2.1744 0-1.2009-.974-2.1744-2.177-2.1744z"
        fill="#bdf2ff" />
    <path d="m0 83.504 9.37795 47.757h61.37615l-9.1965-48.1085z" fill="#f050f8" />
    <path d="m0 83.5045 3.89518-4.105h59.87362l8.4254 44.9955h33.4068l-2.727 6.77-32.1199.097-9.1965-48.109z"
        fill="#bb00d4" />
    <g filter="url(#a)">
        <path
            d="m38.4361 109.62s-.0169-.034-.0283-.051c-.4706-.607-1.3324-.414-2.1886-.221-.2381.051-.4195.108-.5556.159.3175-.397.9469-1.389.7938-2.813-.1985-1.854-.7711-4.116-3.6231-3.997-2.8519.119-3.5776 2.472-3.4642 4.105.0963 1.389.5556 2.438.8958 3.056-.3119-.289-.7258-.567-.9979-.674-.4196-.165-.8448-.137-.9752.022l-.0114.017c-.0964.142-.1757.386.0284.618-.0227.221.0907.511.3686.845.3685.448 1.1963.635 1.6158.663.2155.012.4253.006.6407-.022-.0056.039 0 .073 0 .107.0114.091.0568.171.1021.244.1021.176.3799.431.9695.358.5897-.074.7995-.369 1.0376-.709.034-.051.0624-.108.0851-.165.068-.175.0794-.368.0794-.527.119.403.6974.953 1.0772 1.049.4309.102 1.2587.21 1.5932-.488.6974.108 1.2984-.045 1.4799-.096.2324-.062.6974-.459.6804-.782 0-.046-.0114-.086-.0341-.125.2665-.136.5103-.38.4366-.567z"
            fill="#d9ddff" />
    </g>
    <path
        d="m172.795 130.304c-5.523-.187-15.83-13.602-15.83-13.602l-11.334-15.434c-4.638-4.1103-30.986-45.5002-4.219-34.495h.017c.873.5556 2.194 1.0772 3.09 1.7406 14.867 11.0959 21.84 28.8312 26.717 35.5104 15.801 21.636 7.087 26.461 1.559 26.28z"
        fill="#d9ddff" />
    <path
        d="m176.351 131.632c-3.912.788-8.641-.578-11.351-14.555-2.716-13.976-9.038-38.3674-8.862-40.3462s1.213-3.1241 1.213-3.1241-.011 4.1787.845 4.4509c.856.2721 4.99.0113 5.687-2.3871.697-2.404-2.637-4.7343-2.637-4.7343s4.366-.8334 5.143 1.6329c1.043 3.3112 11.986 35.7029 11.986 35.7029s9.367 21.069-2.013 23.36z"
        fill="#d9ddff" />
    <path
        d="m165.651 66.4898s1.202-6.5146-2.926-11.6515c-4.133-5.1369-12.399-11.1356-13.136-8.8109-.732 2.3246-.29 5.9816 1.508 8.5954 1.797 2.6138 4.003 4.3318 4.536 7.6997s-1.951 3.3452-1.696 4.9611.182 2.869 1.9 4.1163c1.718 1.2474 1.542 5.5508 2.358 6.6621.811 1.1113 5.432.652 5.959-1.2247.528-1.8767 1.497-10.3418 1.497-10.3418z"
        fill="#f050f8" />
    <g fill="#d9ddff">
        <path
            d="m157.705 32.0076c-.919.2155-1.832.4309-2.75.6407-.743.1701-1.355-.1871-1.503-.8618-.147-.6634.244-1.236.97-1.4061 1.859-.4366 3.714-.8675 5.573-1.2984.743-.1701 1.355.1871 1.503.8618.147.6634-.244 1.2304-.975 1.4061-.942.2212-1.883.4366-2.824.6577z" />
        <path
            d="m152.497 37.9371c-.13-.6633.012-1.0659.397-1.3664.386-.3062.896-.3232 1.355-.0397 1.049.6464 2.093 1.3041 3.136 1.9561.573.3572 1.151.7144 1.718 1.0773s.737 1.0489.402 1.6046c-.34.5556-1.032.7257-1.61.3685-1.627-.9979-3.249-2.0015-4.859-3.0277-.255-.1644-.431-.4593-.539-.5783z" />
        <path
            d="m149.85 26.8541c.079-.2949.097-.6237.25-.8732 1.003-1.6499 2.035-3.2885 3.067-4.9214.346-.5443 1.06-.6861 1.593-.3402.533.3458.698 1.0376.357 1.5875-1.009 1.633-2.018 3.2659-3.033 4.8931-.278.4479-.686.635-1.202.5613-.465-.0623-.833-.4195-1.026-.9128z" />
    </g>
</svg>