<svg fill="none" height="148" viewBox="0 0 202 148" width="202" xmlns="http://www.w3.org/2000/svg" xmlns:xlink="http://www.w3.org/1999/xlink"><clipPath id="a"><path d="m0 0h202v147.468h-202z"/></clipPath><g clip-path="url(#a)"><path d="m142.864 144.877c18.226 0 33.001-14.775 33.001-33.002 0-18.2258-14.775-33.0011-33.001-33.0011s-33.002 14.7753-33.002 33.0011c0 18.227 14.776 33.002 33.002 33.002z" fill="#f2a675"/><g fill="#6975ee"><path d="m150.497 128.208-10.951-2.332-.17.796 10.952 2.332z"/><path d="m139.975 123.672-11.105-1.435-.104.808 11.104 1.434z"/><path d="m128.853 121.772-11.105-1.435-.104.808 11.104 1.434z"/><path d="m196.411 146.352-3.063-.428 2.509-17.876 1.747-1.319 1.316 1.747z"/><path d="m183.649 142.788-2.781-.39 2.279-16.232 1.584-1.197 1.197 1.587z"/><path d="m170.846 140.338-2.791-.323 1.883-16.281 1.557-1.235 1.234 1.558z"/><path d="m160.26 138.129-2.599-.236 1.37-15.161 1.419-1.183 1.18 1.419z"/><path d="m151.014 136.179-2.42-.057.32-14.122 1.238-1.182 1.182 1.237z"/><path d="m141.247 134.551-2.42-.057.32-14.121 1.237-1.183 1.183 1.237z"/><path d="m130.666 133.194-2.42-.057.32-14.122 1.237-1.182 1.183 1.237z"/><path d="m118.187 132.651-2.42-.057.32-14.121 1.237-1.183 1.183 1.237z"/></g><path d="m0 147.468s32.2799-45.153 121.184-26.675c29.021 8.001 80.819 26.265 80.819 26.265s-189.1703.085-202.00028695.41z" fill="#18f0b8"/><path d="m40.332 116.447c-.2957-.152-.5291-.296-.7515-.448-2.0213-1.495-2.4689 1.047-3.82 1.118h-.5291l.2225-20.3428v-.8221l.2957-23.5546.2958-22.1412v-10.6189l2.5394.2225 1.1991.0705v.6701l.0706 12.7948.2224 42.6274z" fill="#00cbfc"/><path d="m40.0258 53.3222c0 .8221-.5996.8221-.6701-.0705-.152-3.139-.5996-5.9036-2.2465-5.456-.4476.152-.7515 1.0473-1.0472 2.3984l.1519-10.6189 3.7386.2957.0706 13.454z" fill="#00f3f9"/><path d="m59.5563 64.7627-3.2937-4.7858-2.2464-3.2204-11.5956-16.8263-.529-.7515.5996-.8221 1.8693.9767 5.0897 2.7646c.2224.152.4476.2957.5995.5996l6.2807 11.818 1.9507 3.7386 2.9166 5.456c.5181 1.1286-.9767 2.0212-1.6469 1.0581z" fill="#00cbfc"/><path d="m40.6245 35.5903c-.1519 1.1177-.2224 2.3169 0 3.4455.0706.4477-.2224.8953-.6701.8953h-8.4538c-.152 0-.2958-.0705-.4477-.1519-.0705-.0705-.1519-.0705-.1519-.1519-.8953-1.4949-.8953-3.139 0-4.7858.1519-.2225.3771-.3771.5996-.3771h8.4538c.4477 0 .7515.3771.6701.822z" fill="#00cbfc"/><path d="m44.6706 37.5399c-.1519 1.9399-3.3642 1.9399-4.3382 1.8693-.2224 0-.3771-.1519-.4476-.2957-.0706-.1519-.152-.4476-.2225-.822-.0705-.152-.0705-.3772-.1519-.5996-.152-.9767.2224-1.6469.4476-2.0213.0706-.1519.2225-.2224.4477-.2224.7515 0 2.9979.0705 3.8932 1.0472.2225.2225.4477.5887.3771 1.0473z" fill="#00cbfc"/><path d="m58.2872 58.2517c-.8221 1.1992-1.8693 1.7988-1.8693 1.7988s-.0706 0-.152-.0706l-2.2464-3.2203c1.0473-.5996 1.7988-1.4949 2.2464-2.1651z" fill="#00f3b3"/><path d="m40.6953 35.2151c0 .152-.0705.2225-.0705.3771h-8.0794s-1.6469.2225-1.4949 3.5867v.529c-.0706-.0705-.152-.0705-.152-.1519-.8953-1.4949-.8953-3.139 0-4.7858.152-.2225.3771-.3771.5996-.3771h8.4539c.4476 0 .822.3771.7406.822z" fill="#00f3f9"/><path d="m36.4391 96.6197-.9767.0706.2957-24.3768z" fill="#00f3f9"/><path d="m44.6707 37.5401c-.1519 1.9398-3.3642 1.9398-4.3382 1.8693-.2224 0-.3771-.1519-.4476-.2957-.4477-.6702-.3771-1.2697-.152-1.9399.2225 1.8693 2.0945 1.9399 3.2937 1.5763 1.1178-.2957 1.2697-1.5763 1.2697-2.3169.2225.2848.4476.6511.3771 1.1069z" fill="#00f3f9"/><path d="m40.8501 96.8454v37.5456c-.152-.07-.6702 2.317-.8221 2.247-.2957-.152-.2225-.448-.529-.6-2.0213-1.495-1.5763.67-2.846.752-.1519 0 .0705 1.495-.152 1.495-.1519 0-1.5762-3.894-1.7173-3.964v-37.5461c0-.4477.2957-.7515.6701-.8221h4.4114c.152 0 .2225 0 .3771.0706.3148.0813.6105.3771.6105.822z" fill="#00f3b3"/><path d="m39.733 39.4831-.1519.1519-.5291.5996-.3771.4476-.529.5996-1.7988 2.165-1.7065 2.0945c-.1519.2225-.4476.3771-.6701.4476l-.5996.152-12.7947 3.8932-4.6447 1.4216-9.72361 2.9871c-.75152.2225-1.19917-.8953-.44766-1.1992l8.74957-3.8118 4.4901-1.9398 17.3554-7.5504 2.6208-1.1178.529.6701h.2225v-.0108z" fill="#00cbfc"/><path d="m39.1327 40.2345-.3771.4476-.5291.5996-1.7987 2.165c-.2225.0706-.3771.2225-.5291.2225-1.2697.4477-7.9248 2.0945-7.7837 1.5763.2333-.4477 10.2635-4.7153 11.015-5.011z" fill="#00f3f9"/><path d="m59.7083.665355-4.7858 9.723545-1.9398 3.9638-10.6379 21.6148v.0706l-.8953-.1519h-.1519v-1.4217l-.0705-6.4326c0-.2957.0705-.5291.2224-.7515l8.7496-13.5354 2.3983-3.7386 6.2889-9.726298c.3662-.588731 1.1178-.141079.822.385253z" fill="#00cbfc"/><path d="m54.9124 10.3912-1.9398 3.9638c-1.0472-.2957-2.0212-.5291-2.7646-.6701l2.3983-3.73861c.9659.07051 1.7065.29571 2.3061.44761z" fill="#00f3b3"/><path d="m41.6721 35.4373s8.3834-17.3554 8.6058-18.1802c.152-.822-7.7837 10.0193-8.0794 10.467-.3039.4666-.5291 7.7132-.5291 7.7132z" fill="#00f3f9"/><path d="m20.5757 50.1018-4.6448 1.4216c-.2957-.529-.822-1.2697-1.4216-2.0944l4.4901-1.9399c.4476.6702 1.0472 1.5655 1.5763 2.6127z" fill="#00f3b3"/><path d="m48.9261 138.331v4.989l-.4666.04v-5.162z" fill="#6378f5"/><path d="m48.457 143.36-.5073-.295v-4.523l.5073-.344z" fill="#5448ff"/><path d="m69.2796 136.705v.681l-36.561 2.347-5.5482-16.715v-2.347z" fill="#5448ff"/><path d="m33.0632 138.922 36.2164-2.217-11.2591-14.46-30.8501-1.577 5.8928 18.251z" fill="#6378f5"/><path d="m27.9819 121.096.681 2.136.5996 1.88.6403 2.002 1.6251 4.949 1.2399 3.801.6809 2.135 10.1929-.6 18.2209-1.107 6.3105-.385-3.0684-3.964-1.6251-2.094-1.5356-2.002-3.1607-4.054-.9849-1.28-12.3769-.559-17.4368-.855z" fill="#301987"/><path d="m65.9752 132.752-34.0704.903.0108.337 34.0705-.904z" fill="#6378f5"/><path d="m63.773 129.776-32.9336.386v.344l32.9336-.385z" fill="#6378f5"/><path d="m29.7808 126.808v.336l31.9081.223v-.345z" fill="#6378f5"/><path d="m28.7662 123.74-.0108.345 30.8799.681.0108-.345z" fill="#6378f5"/><path d="m34.9959 121.248-.3147.133 7.1027 16.349.3147-.133z" fill="#6378f5"/><path d="m41.5285 121.626-.3039.163 8.2205 15.434.3039-.162z" fill="#6378f5"/><path d="m47.3397 121.768-.2958.181 9.2461 14.898.2957-.182z" fill="#6378f5"/><path d="m52.9909 122.084-.2848.193 9.8972 14.205.2848-.192z" fill="#6378f5"/><path d="m27.9817 121.096.681 2.136 33.2782 4.604-3.1607-4.054-13.3536-1.839-17.4476-.844z" fill="#ffb5ff" opacity=".2"/><path d="m29.2627 125.112.6403 2.002 35.1991 4.816-1.6252-2.095-34.2142-4.726z" fill="#ffb5ff" opacity=".2"/><path d="m31.5288 132.063 1.2399 3.801 10.882 1.536 18.2208-1.107-30.3427-4.227z" fill="#ffb5ff" opacity=".2"/><path d="m94.0598 124.537c-.2333-.119-.4178-.233-.5914-.352-1.5926-1.178-1.9453.824-3.0115.881h-.4178l.1763-16.034v-.648l.2333-18.5655.2334-17.4503v-8.3698l2.0022.1764.9441.0569v.5291l.057 10.0844.1763 33.5988.2008 16.096z" fill="#00cbfc"/><path d="m93.818 74.7849c0 .6485-.472.6485-.529-.0569-.1194-2.4743-.4721-4.6529-1.7689-4.3002-.3527.1194-.5915.8248-.8248 1.891l.1194-8.3698 2.9464.2334z" fill="#00f3f9"/><path d="m91.7746 87.5904.6539-4.5307.4232-3.0658 2.2844-15.9419.095-.7189.7867-.1574.5616 1.5655 1.4705 4.3218c.0488.2089.1004.4097.0271.6674l-2.6832 10.2011-.8709 3.2095-1.229 4.718c-.3038.9306-1.6468.6485-1.5193-.2686z" fill="#00cbfc"/><path d="m94.2891 60.8104c-.1194.8817-.1763 1.8258 0 2.7157.057.3527-.1763.7054-.529.7054h-6.6633c-.1194 0-.2333-.057-.3527-.1194-.057-.0569-.1194-.0569-.1194-.1193-.7053-1.1775-.7053-2.4743 0-3.7712.1194-.1763.2958-.2957.4721-.2957h6.6633c.3527 0 .5914.2957.529.6484v.2415z" fill="#00cbfc"/><path d="m97.4778 62.349c-.1194 1.5302-2.6507 1.5302-3.4185 1.4732-.1763 0-.2957-.1194-.3527-.2333-.0569-.1194-.1193-.3527-.1763-.6485-.057-.1193-.057-.2957-.1194-.472-.1194-.7678.1764-1.2969.3527-1.5926.057-.1194.1764-.1763.3527-.1763.5914 0 2.3631.0569 3.0685.8247.1763.1764.3527.464.2957.8248z" fill="#00cbfc"/><path d="m94.5225 83.1381c-1.1178.2551-2.0457.0407-2.0457.0407s-.0407-.0379-.0515-.122l.4232-3.0658c.9279.2116 1.8395.0977 2.458-.0515z" fill="#00f3b3"/><path d="m94.3461 60.5145c0 .1194-.057.1763-.057.2957h-6.3675s-1.2969.1764-1.1775 2.827v.4178c-.057-.057-.1194-.057-.1194-.1194-.7053-1.1774-.7053-2.4743 0-3.7711.1194-.1764.2958-.2957.4721-.2957h6.6633c.3527 0 .6484.2957.5833.6484z" fill="#00f3f9"/><path d="m90.9905 108.91-.7678.057.2333-19.2136.5372 19.1566z" fill="#00f3f9"/><path d="m97.4782 62.3479c-.1194 1.5302-2.6507 1.5302-3.4185 1.4732-.1763 0-.2957-.1194-.3527-.2333-.3527-.5291-.2957-1.0011-.1194-1.5302.1764 1.4732 1.6496 1.5302 2.5937 1.2426.8818-.2333 1.0011-1.2426 1.0011-1.8259.1764.2252.3527.5128.2958.8736z" fill="#00f3f9"/><path d="m94.4659 109.086v29.594c-.5995.694-4.0994.944-4.7804-.057v-29.594c0-.353.2334-.592.5291-.649h3.4754c.1194 0 .1764 0 .2957.057.2496.066.4802.296.4802.649z" fill="#00f3b3"/><path d="m93.8147 62.3507-.171.0055-.6267.0651-.4558.0569-.6267.0652-2.1975.2902-2.1081.2985c-.2089.0488-.4612-.0217-.6267-.1004l-.4287-.2333-9.4875-4.5878-3.4483-1.6604-7.2275-3.47c-.5562-.2713-.2171-1.1584.3825-.9332l7.1028 2.4715 3.6382 1.2779 14.0861 4.9079 2.1162.7542-.0516.6701.1303.1194.0054-.0054z" fill="#00cbfc"/><path d="m92.5883 62.1633-.4558.0624-.6267.0706-2.1976.3066c-.1682-.076-.3364-.0679-.4259-.1493-.9767-.4123-5.73-2.9843-5.3719-3.2095.3744-.1356 8.4837 2.6941 9.0779 2.922z" fill="#00f3f9"/><path d="m126.138 50.5574-7.971 3.0712-3.242 1.2561-17.7162 6.826-.0379.0407-.4368-.567-.0896-.0814.2008-.217.5589-.605 3.3998-3.763c.157-.171.322-.2686.531-.3147l12.304-3.158 3.389-.8818 8.841-2.2681c.527-.1465.725.5155.272.6647z" fill="#00cbfc"/><path d="m118.161 53.6235-3.242 1.2561c-.447-.7298-.887-1.3864-1.242-1.8666l3.388-.8817c.521.5562.831 1.0825 1.096 1.4922z" fill="#00f3b3"/><path d="m97.1001 61.0459s14.1349-5.5672 14.7049-5.9226c.529-.3961-9.865 1.6387-10.274 1.7418-.426.1085-4.4309 4.1835-4.4309 4.1835z" fill="#00f3f9"/><path d="m77.045 58.2572-3.4483-1.6604c.1112-.464.2035-1.1748.2957-1.9724l3.6382 1.2778c-.1004.6268-.2306 1.4651-.4856 2.355z" fill="#00f3b3"/><path d="m93.1598 136.321v3.198l-.2985.028v-3.31z" fill="#6378f5"/><path d="m92.8588 139.547-.3256-.19v-2.898l.3256-.222z" fill="#5448ff"/><path d="m106.207 135.279v.436l-23.4354 1.506-3.5568-10.714v-1.505z" fill="#5448ff"/><path d="m82.9917 136.701 23.2133-1.419-7.2172-9.268-19.7754-1.009 3.7766 11.698z" fill="#6378f5"/><path d="m79.7354 125.276.4368 1.367.3852 1.205.4097 1.283 1.0418 3.171.7949 2.437.4368 1.367 6.533-.385 11.6794-.711 4.045-.247-1.967-2.539-1.041-1.343-.985-1.284-2.0268-2.599-.6321-.819-7.933-.358-11.1777-.548z" fill="#301987"/><path d="m104.088 132.744-21.84.581.0055.214 21.8405-.58z" fill="#6378f5"/><path d="m102.674 130.838-21.11.247v.222l21.11-.247z" fill="#6378f5"/><path d="m80.8892 128.935v.215l20.4538.143v-.222z" fill="#6378f5"/><path d="m80.2378 126.969-.0054.222 19.7946.437.005-.222z" fill="#6378f5"/><path d="m84.2296 125.373-.2008.084 4.5525 10.48.2008-.084z" fill="#6378f5"/><path d="m88.4185 125.612-.1954.103 5.2688 9.894.1953-.103z" fill="#6378f5"/><path d="m92.143 125.704-.1899.116 5.928 9.55.19-.116z" fill="#6378f5"/><path d="m95.7648 125.907-.1818.125 6.343 9.105.182-.125z" fill="#6378f5"/><path d="m79.7354 125.276.4368 1.367 21.3328 2.952-2.0268-2.599-8.5597-1.181z" fill="#ffb5ff" opacity=".2"/><path d="m80.5557 127.848.4096 1.283 22.5617 3.087-1.042-1.343z" fill="#ffb5ff" opacity=".2"/><path d="m82.0093 132.303.7949 2.436 6.9753.985 11.6795-.711z" fill="#ffb5ff" opacity=".2"/><path d="m123.633 133.684v2.222l-.209.019v-2.301z" fill="#6378f5"/><path d="m123.428 135.925-.225-.13v-2.016l.225-.155z" fill="#5448ff"/><path d="m132.704 132.959v.304l-16.29 1.044-2.471-7.447v-1.045z" fill="#5448ff"/><path d="m116.569 133.946 16.135-.987-5.017-6.444-13.744-.702 2.626 8.131z" fill="#6378f5"/><path d="m114.304 126.005.304.949.265.839.285.892.725 2.206.553 1.693.304.95 4.542-.266 8.117-.494 2.811-.171-1.368-1.766-.724-.933-.684-.893-1.408-1.807-.439-.57-5.513-.249-7.768-.38z" fill="#301987"/><path d="m131.23 131.199-15.18.404.006.149 15.179-.404z" fill="#6378f5"/><path d="m130.247 129.871-14.672.171v.155l14.672-.171z" fill="#6378f5"/><path d="m115.107 128.55v.149l14.216.1v-.154z" fill="#6378f5"/><path d="m114.654 127.183-.005.155 13.758.304.005-.155z" fill="#6378f5"/><path d="m117.43 126.074-.141.059 3.163 7.285.141-.06z" fill="#6378f5"/><path d="m120.34 126.241-.135.073 3.662 6.878.136-.073z" fill="#6378f5"/><path d="m122.928 126.303-.13.082 4.121 6.636.13-.082z" fill="#6378f5"/><path d="m125.445 126.445-.127.087 4.409 6.329.127-.087z" fill="#6378f5"/><path d="m114.304 126.005.304.949 14.826 2.052-1.408-1.807-5.949-.82-7.773-.377z" fill="#ffb5ff" opacity=".2"/><path d="m114.874 127.793.284.893 15.682 2.146-.725-.933z" fill="#ffb5ff" opacity=".2"/><path d="m115.886 130.889.553 1.693 4.848.683 8.118-.494z" fill="#ffb5ff" opacity=".2"/><path d="m196.137 130.994-11.105-1.435-.104.808 11.104 1.434z" fill="#6975ee"/><path d="m183.115 129.365-11.105-1.434-.104.807 11.104 1.434z" fill="#6975ee"/><path d="m170.906 127.739-11.104-1.434-.105.807 11.105 1.434z" fill="#6975ee"/><path d="m161.138 126.383-11.104-1.435-.105.808 11.105 1.434z" fill="#6975ee"/><path d="m150.286 125.028-11.105-1.435-.104.808 11.104 1.434z" fill="#6975ee"/><path d="m195.262 138.516-10.951-2.331-.169.796 10.951 2.332z" fill="#6975ee"/><path d="m182.24 135.26-10.951-2.331-.17.796 10.951 2.331z" fill="#6975ee"/><path d="m170.847 132.548-10.951-2.332-.17.796 10.951 2.332z" fill="#6975ee"/><path d="m160.266 130.106-10.952-2.332-.169.796 10.951 2.332z" fill="#6975ee"/></g></svg>